# xmcd
#
# Track frame offsets:
#	150
#	15329
#	33801
#	57954
#	71227
#	86678
#	105197
#	131636
#	151269
#	166979
#	181489
#	198912
#	225929
#	248527
#
# Disc length: 3594 seconds
#
# Revision: 1
# Processed by: cddbd v1.5.2PL0 Copyright (c) Steve Scherf et al.
# Submitted via: EasyCDDAExtractor 16.0.8.2
#
DISCID=a00e080e
DTITLE=Γαλάνη Δήμητρα - Αφιέρωμα στον Ν. Γκάτσο-Σ. Ξαρχάκος 2
DYEAR=2003
DGENRE=Ποικίλη
TTITLE0=Άνευ ερμηνευτού - Περιμπανού [Ορχηστρικό, Μάνος Χατζιδάκις]
TTITLE1=Γαλάνη Δήμητρα - Είχα φυτέψει μιά καρδιά [Μίκης Θεοδωράκης]
TTITLE2=Γαλάνη Δήμητρα - Σε πότισα ροδόσταμο [Μίκης Θεοδωράκης]
TTITLE3=Γαλάνη Δήμητρα - Αν θυμηθείς τ' όνειρό μου [Μίκης Θεοδωράκης]
TTITLE4=Γαλάνη Δήμητρα - Ο Γιάννης ο φονιάς [Μάνος Χατζιδάκις]
TTITLE5=Γαλάνη Δήμητρα-Λιγνάδης Δημήτρης - Κεμάλ [Μάνος Χατζιδάκις]
TTITLE6=Γαλάνη Δήμητρα-Λιγνάδης Δημήτρης - Η χοντρομπαλού [Σταύρος Ξαρχάκος]
TTITLE7=Γαλάνη Δήμητρα - Γεια σου χαρά σου Βενετιά [Σταύρος Ξαρχάκος]
TTITLE8=Γαλάνη Δήμητρα - Αθανασία [Μάνος Χατζιδάκις]
TTITLE9=Γαλάνη Δήμητρα - Περιμπανού [Μάνος Χατζιδάκις]
TTITLE10=Γαλάνη Δήμητρα - Μπουρνοβαλιά [Σταύρος Ξαρχάκος]
TTITLE11=Γαλάνη Δήμητρα - Το δίχτυ [Σταύρος Ξαρχάκος]
TTITLE12=Γαλάνη Δήμητρα - Το πρακτορείο [Σταύρος Ξαρχάκος]
TTITLE13=Γαλάνη Δήμητρα - Έλα σε μένα [Μάνος Χατζιδάκις]
EXTD=
EXTT0=
EXTT1=
EXTT2=
EXTT3=
EXTT4=
EXTT5=
EXTT6=
EXTT7=
EXTT8=
EXTT9=
EXTT10=
EXTT11=
EXTT12=
EXTT13=
PLAYORDER=
